# xmcd CD database file
#
# Track frame offsets:
#	150
#	26432
#	58557
#	75392
#	89527
#	106067
#	122887
#	144957
#	162912
#	182987
#
# Disc length: 2829 seconds
#
# Revision: 0
# Processed by: cddbd v1.4PL0 Copyright (c) Steve Scherf et al.
# Submitted via: CDex 1.40Release
#
DISCID=780b0b0a
DTITLE=Apu - Dancing with the Incas
DYEAR=1997
DGENRE=Native American
TTITLE0=Danzando con los Incas
TTITLE1=Avispa'o
TTITLE2=Cherok's
TTITLE3=Luisino
TTITLE4=Misterio
TTITLE5=Nunca Perderte
TTITLE6=Jamas
TTITLE7=Tiempo de Amar
TTITLE8=Fiestapu
TTITLE9=Condor Pasa
EXTD=YEAR: 1997 ID3G: 64
EXTT0=
EXTT1=
EXTT2=
EXTT3=
EXTT4=
EXTT5=
EXTT6=
EXTT7=
EXTT8=
EXTT9=
PLAYORDER=
